<?xml version="1.0" encoding="utf-8"?>
<!-- Generator: Adobe Illustrator 25.2.1, SVG Export Plug-In . SVG Version: 6.00 Build 0)  -->
<svg version="1.1" id="Layer_1" xmlns="http://www.w3.org/2000/svg" xmlns:xlink="http://www.w3.org/1999/xlink" x="0px" y="0px"
	 viewBox="0 0 820.3 328.9" style="enable-background:new 0 0 820.3 328.9;" xml:space="preserve">
<style type="text/css">
	.st0{fill:none;}
	.st1{fill:#E595B5;}
	.st2{opacity:0.9;fill:url(#New_Pattern);}
</style>
<pattern  x="187.1" y="305.9" width="153" height="168" patternUnits="userSpaceOnUse" id="New_Pattern" viewBox="14.7 -179.5 153 168" style="overflow:visible;">
	<g>
		<rect x="14.7" y="-179.5" class="st0" width="153" height="168"/>
		<g>
			<path class="st1" d="M164-19.7l-0.1,0.4l0.8,12.5l-11.4-6.6l-0.3,0.1L160.7,0l0.2-0.1l-6.2-10.8l10.1,5.8l0.3-0.2l-0.7-11.3
				l6.2,10.8l1.3-0.8l-7.7-13.3L164-19.7z"/>
			<path class="st1" d="M173.2-25l-6.8,3.9l7.7,13.3l6.8-3.9l-0.1-0.2l-5.5,3.2l-3.9-6.7l4.4-2.6l-0.1-0.2l-4.4,2.6l-3.5-6l5.5-3.2
				L173.2-25z"/>
		</g>
		<g>
			<path class="st1" d="M113-19.7l-0.1,0.4l0.8,12.5l-11.4-6.6l-0.3,0.1L109.7,0l0.2-0.1l-6.2-10.8l10.1,5.8l0.3-0.2l-0.7-11.3
				l6.2,10.8l1.3-0.8l-7.7-13.3L113-19.7z"/>
			<path class="st1" d="M122.2-25l-6.8,3.9l7.7,13.3l6.8-3.9l-0.1-0.2l-5.5,3.2l-3.9-6.7l4.4-2.6l-0.1-0.2l-4.4,2.6l-3.5-6l5.5-3.2
				L122.2-25z"/>
			<path class="st1" d="M131-30.1l-6.8,3.9l7.7,13.3l6.8-3.9l-0.1-0.2l-5.5,3.2l-3.9-6.7l4.4-2.6l-0.1-0.2l-4.4,2.6l-3.5-6l5.5-3.2
				L131-30.1z"/>
		</g>
		<g>
			<path class="st1" d="M62-19.7l-0.1,0.4l0.8,12.5l-11.4-6.6L51-13.3L58.7,0l0.2-0.1l-6.2-10.8l10.1,5.8L63-5.3l-0.7-11.3l6.2,10.8
				l1.3-0.8l-7.7-13.3L62-19.7z"/>
			<path class="st1" d="M71.2-25l-6.8,3.9l7.7,13.3l6.8-3.9l-0.1-0.2l-5.5,3.2l-3.9-6.7l4.4-2.6l-0.1-0.2l-4.4,2.6l-3.5-6l5.5-3.2
				L71.2-25z"/>
			<path class="st1" d="M80-30.1l-6.8,3.9l7.7,13.3l6.8-3.9L87.5-17L82-13.8l-3.9-6.7l4.4-2.6l-0.1-0.2l-4.4,2.6l-3.5-6l5.5-3.2
				L80-30.1z"/>
		</g>
		<g>
			<path class="st1" d="M11-19.7l-0.1,0.4l0.8,12.5L0.3-13.5L0-13.3L7.7,0l0.2-0.1L1.7-10.9l10.1,5.8L12-5.3l-0.7-11.3l6.2,10.8
				l1.3-0.8l-7.7-13.3L11-19.7z"/>
			<path class="st1" d="M20.2-25l-6.8,3.9l7.7,13.3l6.8-3.9l-0.1-0.2l-5.5,3.2l-3.9-6.7l4.4-2.6l-0.1-0.2l-4.4,2.6l-3.5-6l5.5-3.2
				L20.2-25z"/>
			<path class="st1" d="M29-30.1l-6.8,3.9l7.7,13.3l6.8-3.9L36.5-17L31-13.8l-3.9-6.7l4.4-2.6l-0.1-0.2l-4.4,2.6l-3.5-6l5.5-3.2
				L29-30.1z"/>
		</g>
		<g>
			<path class="st1" d="M161.2-35l0.2-0.1l-1.4-7.8c2.8-1.6,6.4-0.4,8.3,1l2,1.6l1.4-0.8l-12.5-10.5l-0.2,0.1l-0.5,0.6L161.2-35z
				 M160.1-43.1l-1.2-6.6l8.2,6.9C164.9-44,162.2-44.3,160.1-43.1z"/>
			<path class="st1" d="M176.8-61.7l-0.1,0.4l0.8,12.5L166-55.5l-0.3,0.1l7.7,13.3l0.2-0.1l-6.2-10.8l10.1,5.8l0.3-0.2l-0.7-11.3
				l6.2,10.8l1.3-0.8L177-61.8L176.8-61.7z"/>
		</g>
		<g>
			<path class="st1" d="M110.2-35l0.2-0.1l-1.4-7.8c2.8-1.6,6.4-0.4,8.3,1l2,1.6l1.4-0.8l-12.5-10.5l-0.2,0.1l-0.5,0.6L110.2-35z
				 M109.1-43.1l-1.2-6.6l8.2,6.9C113.9-44,111.2-44.3,109.1-43.1z"/>
			<path class="st1" d="M125.8-61.7l-0.1,0.4l0.8,12.5L115-55.5l-0.3,0.1l7.7,13.3l0.2-0.1l-6.2-10.8l10.1,5.8l0.3-0.2l-0.7-11.3
				l6.2,10.8l1.3-0.8L126-61.8L125.8-61.7z"/>
			<path class="st1" d="M135-67l-6.8,3.9l7.7,13.3l6.8-3.9l-0.1-0.2l-5.5,3.2l-3.9-6.7l4.4-2.6l-0.1-0.2l-4.4,2.6l-3.5-6l5.5-3.2
				L135-67z"/>
			<path class="st1" d="M143.7-72.1l-6.8,3.9l7.7,13.3l6.8-3.9l-0.1-0.2l-5.5,3.2l-3.9-6.7l4.4-2.6l-0.1-0.2l-4.4,2.6l-3.5-6
				l5.5-3.2L143.7-72.1z"/>
		</g>
		<g>
			<path class="st1" d="M59.2-35l0.2-0.1l-1.4-7.8c2.8-1.6,6.4-0.4,8.3,1l2,1.6l1.4-0.8L57.2-51.5L57-51.4l-0.5,0.6L59.2-35z
				 M58.1-43.1l-1.2-6.6l8.2,6.9C62.9-44,60.2-44.3,58.1-43.1z"/>
			<path class="st1" d="M74.8-61.7l-0.1,0.4l0.8,12.5L64-55.5l-0.3,0.1L71.4-42l0.2-0.1l-6.2-10.8l10.1,5.8l0.3-0.2l-0.7-11.3
				l6.2,10.8l1.3-0.8L75-61.8L74.8-61.7z"/>
			<path class="st1" d="M84-67l-6.8,3.9l7.7,13.3l6.8-3.9l-0.1-0.2L86-50.7l-3.9-6.7l4.4-2.6l-0.1-0.2L82-57.6l-3.5-6l5.5-3.2L84-67
				z"/>
			<path class="st1" d="M92.7-72.1l-6.8,3.9l7.7,13.3l6.8-3.9l-0.1-0.2l-5.5,3.2l-3.9-6.7l4.4-2.6l-0.1-0.2l-4.4,2.6l-3.5-6l5.5-3.2
				L92.7-72.1z"/>
		</g>
		<g>
			<path class="st1" d="M8.2-35l0.2-0.1l-1.4-7.8c2.8-1.6,6.4-0.4,8.3,1l2,1.6l1.4-0.8L6.2-51.5L6-51.4l-0.5,0.6L8.2-35z M7.1-43.1
				l-1.2-6.6l8.2,6.9C11.9-44,9.2-44.3,7.1-43.1z"/>
			<path class="st1" d="M23.8-61.7l-0.1,0.4l0.8,12.5L13-55.5l-0.3,0.1L20.4-42l0.2-0.1l-6.2-10.8l10.1,5.8l0.3-0.2l-0.7-11.3
				l6.2,10.8l1.3-0.8L24-61.8L23.8-61.7z"/>
			<path class="st1" d="M33-67l-6.8,3.9l7.7,13.3l6.8-3.9l-0.1-0.2L35-50.7l-3.9-6.7l4.4-2.6l-0.1-0.2L31-57.6l-3.5-6l5.5-3.2L33-67
				z"/>
			<path class="st1" d="M41.7-72.1l-6.8,3.9l7.7,13.3l6.8-3.9L49.3-59l-5.5,3.2l-3.9-6.7l4.4-2.6l-0.1-0.2l-4.4,2.6l-3.5-6l5.5-3.2
				L41.7-72.1z"/>
		</g>
		<g>
			<path class="st1" d="M123-77l0.2-0.1l-1.4-7.8c2.8-1.6,6.4-0.4,8.3,1l2,1.6l1.4-0.8l-12.5-10.5l-0.2,0.1l-0.5,0.6L123-77z
				 M121.8-85.1l-1.2-6.6l8.2,6.9C126.7-86,123.9-86.3,121.8-85.1z"/>
			<path class="st1" d="M138.5-103.7l-0.1,0.4l0.8,12.5l-11.4-6.6l-0.3,0.1l7.7,13.3l0.2-0.1l-6.2-10.8l10.1,5.8l0.3-0.2l-0.7-11.3
				l6.2,10.8l1.3-0.8l-7.7-13.3L138.5-103.7z"/>
			<path class="st1" d="M147.7-109l-6.8,3.9l7.7,13.3l6.8-3.9l-0.1-0.2l-5.5,3.2l-3.9-6.7l4.4-2.6l-0.1-0.2l-4.4,2.6l-3.5-6l5.5-3.2
				L147.7-109z"/>
			<path class="st1" d="M156.5-114.1l-6.8,3.9l7.7,13.3l6.8-3.9L164-101l-5.5,3.2l-3.9-6.7l4.4-2.6l-0.1-0.2l-4.4,2.6l-3.5-6
				l5.5-3.2L156.5-114.1z"/>
		</g>
		<g>
			<path class="st1" d="M72-77l0.2-0.1l-1.4-7.8c2.8-1.6,6.4-0.4,8.3,1l2,1.6l1.4-0.8L69.9-93.5l-0.2,0.1l-0.5,0.6L72-77z
				 M70.8-85.1l-1.2-6.6l8.2,6.9C75.7-86,72.9-86.3,70.8-85.1z"/>
			<path class="st1" d="M87.5-103.7l-0.1,0.4l0.8,12.5l-11.4-6.6l-0.3,0.1L84.2-84l0.2-0.1l-6.2-10.8l10.1,5.8l0.3-0.2l-0.7-11.3
				l6.2,10.8l1.3-0.8l-7.7-13.3L87.5-103.7z"/>
			<path class="st1" d="M96.7-109l-6.8,3.9l7.7,13.3l6.8-3.9l-0.1-0.2l-5.5,3.2l-3.9-6.7l4.4-2.6l-0.1-0.2l-4.4,2.6l-3.5-6l5.5-3.2
				L96.7-109z"/>
			<path class="st1" d="M105.5-114.1l-6.8,3.9l7.7,13.3l6.8-3.9L113-101l-5.5,3.2l-3.9-6.7l4.4-2.6l-0.1-0.2l-4.4,2.6l-3.5-6
				l5.5-3.2L105.5-114.1z"/>
		</g>
		<g>
			<path class="st1" d="M21-77l0.2-0.1l-1.4-7.8c2.8-1.6,6.4-0.4,8.3,1l2,1.6l1.4-0.8L18.9-93.5l-0.2,0.1l-0.5,0.6L21-77z
				 M19.8-85.1l-1.2-6.6l8.2,6.9C24.7-86,21.9-86.3,19.8-85.1z"/>
			<path class="st1" d="M36.5-103.7l-0.1,0.4l0.8,12.5l-11.4-6.6l-0.3,0.1L33.2-84l0.2-0.1l-6.2-10.8l10.1,5.8l0.3-0.2l-0.7-11.3
				l6.2,10.8l1.3-0.8l-7.7-13.3L36.5-103.7z"/>
			<path class="st1" d="M45.7-109l-6.8,3.9l7.7,13.3l6.8-3.9l-0.1-0.2l-5.5,3.2l-3.9-6.7l4.4-2.6l-0.1-0.2l-4.4,2.6l-3.5-6l5.5-3.2
				L45.7-109z"/>
			<path class="st1" d="M54.5-114.1l-6.8,3.9l7.7,13.3l6.8-3.9L62-101l-5.5,3.2l-3.9-6.7l4.4-2.6l-0.1-0.2l-4.4,2.6l-3.5-6l5.5-3.2
				L54.5-114.1z"/>
		</g>
		<g>
			<path class="st1" d="M135.7-119l0.2-0.1l-1.4-7.8c2.8-1.6,6.4-0.4,8.3,1l2,1.6l1.4-0.8l-12.5-10.5l-0.2,0.1l-0.5,0.6L135.7-119z
				 M134.6-127.1l-1.2-6.6l8.2,6.9C139.4-128,136.7-128.3,134.6-127.1z"/>
			<path class="st1" d="M151.3-145.7l-0.1,0.4l0.8,12.5l-11.4-6.6l-0.3,0.1l7.7,13.3l0.2-0.1l-6.2-10.8l10.1,5.8l0.3-0.2l-0.7-11.3
				l6.2,10.8l1.3-0.8l-7.7-13.3L151.3-145.7z"/>
			<path class="st1" d="M160.5-151l-6.8,3.9l7.7,13.3l6.8-3.9l-0.1-0.2l-5.5,3.2l-3.9-6.7l4.4-2.6l-0.1-0.2l-4.4,2.6l-3.5-6l5.5-3.2
				L160.5-151z"/>
			<path class="st1" d="M169.2-156.1l-6.8,3.9l7.7,13.3l6.8-3.9l-0.1-0.2l-5.5,3.2l-3.9-6.7l4.4-2.6l-0.1-0.2l-4.4,2.6l-3.5-6
				l5.5-3.2L169.2-156.1z"/>
		</g>
		<g>
			<path class="st1" d="M84.7-119l0.2-0.1l-1.4-7.8c2.8-1.6,6.4-0.4,8.3,1l2,1.6l1.4-0.8l-12.5-10.5l-0.2,0.1l-0.5,0.6L84.7-119z
				 M83.6-127.1l-1.2-6.6l8.2,6.9C88.4-128,85.7-128.3,83.6-127.1z"/>
			<path class="st1" d="M100.3-145.7l-0.1,0.4l0.8,12.5l-11.4-6.6l-0.3,0.1l7.7,13.3l0.2-0.1l-6.2-10.8l10.1,5.8l0.3-0.2l-0.7-11.3
				l6.2,10.8l1.3-0.8l-7.7-13.3L100.3-145.7z"/>
			<path class="st1" d="M109.5-151l-6.8,3.9l7.7,13.3l6.8-3.9l-0.1-0.2l-5.5,3.2l-3.9-6.7l4.4-2.6l-0.1-0.2l-4.4,2.6l-3.5-6l5.5-3.2
				L109.5-151z"/>
			<path class="st1" d="M118.2-156.1l-6.8,3.9l7.7,13.3l6.8-3.9l-0.1-0.2l-5.5,3.2l-3.9-6.7l4.4-2.6l-0.1-0.2l-4.4,2.6l-3.5-6
				l5.5-3.2L118.2-156.1z"/>
		</g>
		<g>
			<path class="st1" d="M33.7-119l0.2-0.1l-1.4-7.8c2.8-1.6,6.4-0.4,8.3,1l2,1.6l1.4-0.8l-12.5-10.5l-0.2,0.1l-0.5,0.6L33.7-119z
				 M32.6-127.1l-1.2-6.6l8.2,6.9C37.4-128,34.7-128.3,32.6-127.1z"/>
			<path class="st1" d="M49.3-145.7l-0.1,0.4l0.8,12.5l-11.4-6.6l-0.3,0.1l7.7,13.3l0.2-0.1l-6.2-10.8l10.1,5.8l0.3-0.2l-0.7-11.3
				l6.2,10.8l1.3-0.8l-7.7-13.3L49.3-145.7z"/>
			<path class="st1" d="M58.5-151l-6.8,3.9l7.7,13.3l6.8-3.9l-0.1-0.2l-5.5,3.2l-3.9-6.7l4.4-2.6l-0.1-0.2l-4.4,2.6l-3.5-6l5.5-3.2
				L58.5-151z"/>
			<path class="st1" d="M67.2-156.1l-6.8,3.9l7.7,13.3l6.8-3.9l-0.1-0.2l-5.5,3.2l-3.9-6.7l4.4-2.6l-0.1-0.2l-4.4,2.6l-3.5-6
				l5.5-3.2L67.2-156.1z"/>
		</g>
		<g>
			<path class="st1" d="M7.5-151l-6.8,3.9l7.7,13.3l6.8-3.9l-0.1-0.2l-5.5,3.2l-3.9-6.7l4.4-2.6l-0.1-0.2l-4.4,2.6l-3.5-6l5.5-3.2
				L7.5-151z"/>
			<path class="st1" d="M16.2-156.1l-6.8,3.9l7.7,13.3l6.8-3.9l-0.1-0.2l-5.5,3.2l-3.9-6.7l4.4-2.6l-0.1-0.2l-4.4,2.6l-3.5-6
				l5.5-3.2L16.2-156.1z"/>
		</g>
		<g>
			<path class="st1" d="M148.5-161l0.2-0.1l-1.4-7.8c2.8-1.6,6.4-0.4,8.3,1l2,1.6l1.4-0.8l-12.5-10.5l-0.2,0.1l-0.5,0.6L148.5-161z
				 M147.3-169.1l-1.2-6.6l8.2,6.9C152.2-170,149.4-170.3,147.3-169.1z"/>
			<path class="st1" d="M164-187.7l-0.1,0.4l0.8,12.5l-11.4-6.6l-0.3,0.1l7.7,13.3l0.2-0.1l-6.2-10.8l10.1,5.8l0.3-0.2l-0.7-11.3
				l6.2,10.8l1.3-0.8l-7.7-13.3L164-187.7z"/>
			<path class="st1" d="M173.2-193l-6.8,3.9l7.7,13.3l6.8-3.9l-0.1-0.2l-5.5,3.2l-3.9-6.7l4.4-2.6l-0.1-0.2l-4.4,2.6l-3.5-6l5.5-3.2
				L173.2-193z"/>
		</g>
		<g>
			<path class="st1" d="M97.5-161l0.2-0.1l-1.4-7.8c2.8-1.6,6.4-0.4,8.3,1l2,1.6l1.4-0.8l-12.5-10.5l-0.2,0.1l-0.5,0.6L97.5-161z
				 M96.3-169.1l-1.2-6.6l8.2,6.9C101.2-170,98.4-170.3,96.3-169.1z"/>
			<path class="st1" d="M113-187.7l-0.1,0.4l0.8,12.5l-11.4-6.6l-0.3,0.1l7.7,13.3l0.2-0.1l-6.2-10.8l10.1,5.8l0.3-0.2l-0.7-11.3
				l6.2,10.8l1.3-0.8l-7.7-13.3L113-187.7z"/>
			<path class="st1" d="M122.2-193l-6.8,3.9l7.7,13.3l6.8-3.9l-0.1-0.2l-5.5,3.2l-3.9-6.7l4.4-2.6l-0.1-0.2l-4.4,2.6l-3.5-6l5.5-3.2
				L122.2-193z"/>
		</g>
		<g>
			<path class="st1" d="M46.5-161l0.2-0.1l-1.4-7.8c2.8-1.6,6.4-0.4,8.3,1l2,1.6L57-167l-12.5-10.5l-0.2,0.1l-0.5,0.6L46.5-161z
				 M45.3-169.1l-1.2-6.6l8.2,6.9C50.2-170,47.4-170.3,45.3-169.1z"/>
			<path class="st1" d="M62-187.7l-0.1,0.4l0.8,12.5l-11.4-6.6l-0.3,0.1l7.7,13.3l0.2-0.1l-6.2-10.8l10.1,5.8l0.3-0.2l-0.7-11.3
				l6.2,10.8l1.3-0.8l-7.7-13.3L62-187.7z"/>
			<path class="st1" d="M71.2-193l-6.8,3.9l7.7,13.3l6.8-3.9l-0.1-0.2l-5.5,3.2l-3.9-6.7l4.4-2.6l-0.1-0.2l-4.4,2.6l-3.5-6l5.5-3.2
				L71.2-193z"/>
		</g>
		<g>
			<path class="st1" d="M11-187.7l-0.1,0.4l0.8,12.5l-11.4-6.6L0-181.3L7.7-168l0.2-0.1l-6.2-10.8l10.1,5.8l0.3-0.2l-0.7-11.3
				l6.2,10.8l1.3-0.8l-7.7-13.3L11-187.7z"/>
			<path class="st1" d="M20.2-193l-6.8,3.9l7.7,13.3l6.8-3.9l-0.1-0.2l-5.5,3.2l-3.9-6.7l4.4-2.6l-0.1-0.2l-4.4,2.6l-3.5-6l5.5-3.2
				L20.2-193z"/>
		</g>
	</g>
</pattern>
<g>
	<path class="st1" d="M-306.8,110.2l0.5-0.6l0.2-0.1l12.5,10.5l-1.4,0.8l-2-1.6c-1.9-1.4-5.5-2.6-8.3-1l1.4,7.8l-0.2,0.1
		L-306.8,110.2z M-298.2,118.1l-8.2-6.9l1.2,6.6C-303.2,116.7-300.4,117-298.2,118.1z"/>
	<path class="st1" d="M-288.3,99.2l7.7,13.3l-1.3,0.8l-6.2-10.8l0.7,11.3l-0.3,0.2l-10.1-5.8l6.2,10.8l-0.2,0.1l-7.7-13.3l0.3-0.1
		l11.4,6.6l-0.8-12.5l0.1-0.4L-288.3,99.2z"/>
	<path class="st1" d="M-279.2,94.2l-5.5,3.2l3.5,6l4.4-2.6l0.1,0.2l-4.4,2.6l3.9,6.7l5.5-3.2l0.1,0.2l-6.8,3.9l-7.7-13.3l6.8-3.9
		L-279.2,94.2z"/>
	<path class="st1" d="M-270.5,89.2l-5.5,3.2l3.5,6l4.4-2.6l0.1,0.2l-4.4,2.6l3.9,6.7l5.5-3.2l0.1,0.2l-6.8,3.9l-7.7-13.3l6.8-3.9
		L-270.5,89.2z"/>
</g>
<g>
	<path class="st1" d="M-256.8,110.2l0.5-0.6l0.2-0.1l12.5,10.5l-1.4,0.8l-2-1.6c-1.9-1.4-5.5-2.6-8.3-1l1.4,7.8l-0.2,0.1
		L-256.8,110.2z M-248.2,118.1l-8.2-6.9l1.2,6.6C-253.2,116.7-250.4,117-248.2,118.1z"/>
	<path class="st1" d="M-238.3,99.2l7.7,13.3l-1.3,0.8l-6.2-10.8l0.7,11.3l-0.3,0.2l-10.1-5.8l6.2,10.8l-0.2,0.1l-7.7-13.3l0.3-0.1
		l11.4,6.6l-0.8-12.5l0.1-0.4L-238.3,99.2z"/>
	<path class="st1" d="M-229.2,94.2l-5.5,3.2l3.5,6l4.4-2.6l0.1,0.2l-4.4,2.6l3.9,6.7l5.5-3.2l0.1,0.2l-6.8,3.9l-7.7-13.3l6.8-3.9
		L-229.2,94.2z"/>
	<path class="st1" d="M-220.5,89.2l-5.5,3.2l3.5,6l4.4-2.6l0.1,0.2l-4.4,2.6l3.9,6.7l5.5-3.2l0.1,0.2l-6.8,3.9l-7.7-13.3l6.8-3.9
		L-220.5,89.2z"/>
</g>
<g>
	<path class="st1" d="M-206.8,110.2l0.5-0.6l0.2-0.1l12.5,10.5l-1.4,0.8l-2-1.6c-1.9-1.4-5.5-2.6-8.3-1l1.4,7.8l-0.2,0.1
		L-206.8,110.2z M-198.2,118.1l-8.2-6.9l1.2,6.6C-203.2,116.7-200.4,117-198.2,118.1z"/>
	<path class="st1" d="M-188.3,99.2l7.7,13.3l-1.3,0.8l-6.2-10.8l0.7,11.3l-0.3,0.2l-10.1-5.8l6.2,10.8l-0.2,0.1l-7.7-13.3l0.3-0.1
		l11.4,6.6l-0.8-12.5l0.1-0.4L-188.3,99.2z"/>
	<path class="st1" d="M-179.2,94.2l-5.5,3.2l3.5,6l4.4-2.6l0.1,0.2l-4.4,2.6l3.9,6.7l5.5-3.2l0.1,0.2l-6.8,3.9l-7.7-13.3l6.8-3.9
		L-179.2,94.2z"/>
	<path class="st1" d="M-170.5,89.2l-5.5,3.2l3.5,6l4.4-2.6l0.1,0.2l-4.4,2.6l3.9,6.7l5.5-3.2l0.1,0.2l-6.8,3.9l-7.7-13.3l6.8-3.9
		L-170.5,89.2z"/>
</g>
<g>
	<path class="st1" d="M-156.8,110.2l0.5-0.6l0.2-0.1l12.5,10.5l-1.4,0.8l-2-1.6c-1.9-1.4-5.5-2.6-8.3-1l1.4,7.8l-0.2,0.1
		L-156.8,110.2z M-148.2,118.1l-8.2-6.9l1.2,6.6C-153.2,116.7-150.4,117-148.2,118.1z"/>
	<path class="st1" d="M-138.3,99.2l7.7,13.3l-1.3,0.8l-6.2-10.8l0.7,11.3l-0.3,0.2l-10.1-5.8l6.2,10.8l-0.2,0.1l-7.7-13.3l0.3-0.1
		l11.4,6.6l-0.8-12.5l0.1-0.4L-138.3,99.2z"/>
	<path class="st1" d="M-129.2,94.2l-5.5,3.2l3.5,6l4.4-2.6l0.1,0.2l-4.4,2.6l3.9,6.7l5.5-3.2l0.1,0.2l-6.8,3.9l-7.7-13.3l6.8-3.9
		L-129.2,94.2z"/>
	<path class="st1" d="M-120.5,89.2l-5.5,3.2l3.5,6l4.4-2.6l0.1,0.2l-4.4,2.6l3.9,6.7l5.5-3.2l0.1,0.2l-6.8,3.9l-7.7-13.3l6.8-3.9
		L-120.5,89.2z"/>
</g>
<g>
	<path class="st1" d="M-306.8,160.2l0.5-0.6l0.2-0.1l12.5,10.5l-1.4,0.8l-2-1.6c-1.9-1.4-5.5-2.6-8.3-1l1.4,7.8l-0.2,0.1
		L-306.8,160.2z M-298.2,168.1l-8.2-6.9l1.2,6.6C-303.2,166.7-300.4,167-298.2,168.1z"/>
	<path class="st1" d="M-288.3,149.2l7.7,13.3l-1.3,0.8l-6.2-10.8l0.7,11.3l-0.3,0.2l-10.1-5.8l6.2,10.8l-0.2,0.1l-7.7-13.3l0.3-0.1
		l11.4,6.6l-0.8-12.5l0.1-0.4L-288.3,149.2z"/>
	<path class="st1" d="M-279.2,144.2l-5.5,3.2l3.5,6l4.4-2.6l0.1,0.2l-4.4,2.6l3.9,6.7l5.5-3.2l0.1,0.2l-6.8,3.9l-7.7-13.3l6.8-3.9
		L-279.2,144.2z"/>
	<path class="st1" d="M-270.5,139.2l-5.5,3.2l3.5,6l4.4-2.6l0.1,0.2l-4.4,2.6l3.9,6.7l5.5-3.2l0.1,0.2l-6.8,3.9l-7.7-13.3l6.8-3.9
		L-270.5,139.2z"/>
</g>
<g>
	<path class="st1" d="M-256.8,160.2l0.5-0.6l0.2-0.1l12.5,10.5l-1.4,0.8l-2-1.6c-1.9-1.4-5.5-2.6-8.3-1l1.4,7.8l-0.2,0.1
		L-256.8,160.2z M-248.2,168.1l-8.2-6.9l1.2,6.6C-253.2,166.7-250.4,167-248.2,168.1z"/>
	<path class="st1" d="M-238.3,149.2l7.7,13.3l-1.3,0.8l-6.2-10.8l0.7,11.3l-0.3,0.2l-10.1-5.8l6.2,10.8l-0.2,0.1l-7.7-13.3l0.3-0.1
		l11.4,6.6l-0.8-12.5l0.1-0.4L-238.3,149.2z"/>
	<path class="st1" d="M-229.2,144.2l-5.5,3.2l3.5,6l4.4-2.6l0.1,0.2l-4.4,2.6l3.9,6.7l5.5-3.2l0.1,0.2l-6.8,3.9l-7.7-13.3l6.8-3.9
		L-229.2,144.2z"/>
	<path class="st1" d="M-220.5,139.2l-5.5,3.2l3.5,6l4.4-2.6l0.1,0.2l-4.4,2.6l3.9,6.7l5.5-3.2l0.1,0.2l-6.8,3.9l-7.7-13.3l6.8-3.9
		L-220.5,139.2z"/>
</g>
<g>
	<path class="st1" d="M-206.8,160.2l0.5-0.6l0.2-0.1l12.5,10.5l-1.4,0.8l-2-1.6c-1.9-1.4-5.5-2.6-8.3-1l1.4,7.8l-0.2,0.1
		L-206.8,160.2z M-198.2,168.1l-8.2-6.9l1.2,6.6C-203.2,166.7-200.4,167-198.2,168.1z"/>
	<path class="st1" d="M-188.3,149.2l7.7,13.3l-1.3,0.8l-6.2-10.8l0.7,11.3l-0.3,0.2l-10.1-5.8l6.2,10.8l-0.2,0.1l-7.7-13.3l0.3-0.1
		l11.4,6.6l-0.8-12.5l0.1-0.4L-188.3,149.2z"/>
	<path class="st1" d="M-179.2,144.2l-5.5,3.2l3.5,6l4.4-2.6l0.1,0.2l-4.4,2.6l3.9,6.7l5.5-3.2l0.1,0.2l-6.8,3.9l-7.7-13.3l6.8-3.9
		L-179.2,144.2z"/>
	<path class="st1" d="M-170.5,139.2l-5.5,3.2l3.5,6l4.4-2.6l0.1,0.2l-4.4,2.6l3.9,6.7l5.5-3.2l0.1,0.2l-6.8,3.9l-7.7-13.3l6.8-3.9
		L-170.5,139.2z"/>
</g>
<g>
	<path class="st1" d="M-156.8,160.2l0.5-0.6l0.2-0.1l12.5,10.5l-1.4,0.8l-2-1.6c-1.9-1.4-5.5-2.6-8.3-1l1.4,7.8l-0.2,0.1
		L-156.8,160.2z M-148.2,168.1l-8.2-6.9l1.2,6.6C-153.2,166.7-150.4,167-148.2,168.1z"/>
	<path class="st1" d="M-138.3,149.2l7.7,13.3l-1.3,0.8l-6.2-10.8l0.7,11.3l-0.3,0.2l-10.1-5.8l6.2,10.8l-0.2,0.1l-7.7-13.3l0.3-0.1
		l11.4,6.6l-0.8-12.5l0.1-0.4L-138.3,149.2z"/>
	<path class="st1" d="M-129.2,144.2l-5.5,3.2l3.5,6l4.4-2.6l0.1,0.2l-4.4,2.6l3.9,6.7l5.5-3.2l0.1,0.2l-6.8,3.9l-7.7-13.3l6.8-3.9
		L-129.2,144.2z"/>
	<path class="st1" d="M-120.5,139.2l-5.5,3.2l3.5,6l4.4-2.6l0.1,0.2l-4.4,2.6l3.9,6.7l5.5-3.2l0.1,0.2l-6.8,3.9l-7.7-13.3l6.8-3.9
		L-120.5,139.2z"/>
</g>
<g>
	<path class="st1" d="M-306.8,210.2l0.5-0.6l0.2-0.1l12.5,10.5l-1.4,0.8l-2-1.6c-1.9-1.4-5.5-2.6-8.3-1l1.4,7.8l-0.2,0.1
		L-306.8,210.2z M-298.2,218.1l-8.2-6.9l1.2,6.6C-303.2,216.7-300.4,217-298.2,218.1z"/>
	<path class="st1" d="M-288.3,199.2l7.7,13.3l-1.3,0.8l-6.2-10.8l0.7,11.3l-0.3,0.2l-10.1-5.8l6.2,10.8l-0.2,0.1l-7.7-13.3l0.3-0.1
		l11.4,6.6l-0.8-12.5l0.1-0.4L-288.3,199.2z"/>
	<path class="st1" d="M-279.2,194.2l-5.5,3.2l3.5,6l4.4-2.6l0.1,0.2l-4.4,2.6l3.9,6.7l5.5-3.2l0.1,0.2l-6.8,3.9l-7.7-13.3l6.8-3.9
		L-279.2,194.2z"/>
	<path class="st1" d="M-270.5,189.2l-5.5,3.2l3.5,6l4.4-2.6l0.1,0.2l-4.4,2.6l3.9,6.7l5.5-3.2l0.1,0.2l-6.8,3.9l-7.7-13.3l6.8-3.9
		L-270.5,189.2z"/>
</g>
<g>
	<path class="st1" d="M-256.8,210.2l0.5-0.6l0.2-0.1l12.5,10.5l-1.4,0.8l-2-1.6c-1.9-1.4-5.5-2.6-8.3-1l1.4,7.8l-0.2,0.1
		L-256.8,210.2z M-248.2,218.1l-8.2-6.9l1.2,6.6C-253.2,216.7-250.4,217-248.2,218.1z"/>
	<path class="st1" d="M-238.3,199.2l7.7,13.3l-1.3,0.8l-6.2-10.8l0.7,11.3l-0.3,0.2l-10.1-5.8l6.2,10.8l-0.2,0.1l-7.7-13.3l0.3-0.1
		l11.4,6.6l-0.8-12.5l0.1-0.4L-238.3,199.2z"/>
	<path class="st1" d="M-229.2,194.2l-5.5,3.2l3.5,6l4.4-2.6l0.1,0.2l-4.4,2.6l3.9,6.7l5.5-3.2l0.1,0.2l-6.8,3.9l-7.7-13.3l6.8-3.9
		L-229.2,194.2z"/>
	<path class="st1" d="M-220.5,189.2l-5.5,3.2l3.5,6l4.4-2.6l0.1,0.2l-4.4,2.6l3.9,6.7l5.5-3.2l0.1,0.2l-6.8,3.9l-7.7-13.3l6.8-3.9
		L-220.5,189.2z"/>
</g>
<g>
	<path class="st1" d="M-206.8,210.2l0.5-0.6l0.2-0.1l12.5,10.5l-1.4,0.8l-2-1.6c-1.9-1.4-5.5-2.6-8.3-1l1.4,7.8l-0.2,0.1
		L-206.8,210.2z M-198.2,218.1l-8.2-6.9l1.2,6.6C-203.2,216.7-200.4,217-198.2,218.1z"/>
	<path class="st1" d="M-188.3,199.2l7.7,13.3l-1.3,0.8l-6.2-10.8l0.7,11.3l-0.3,0.2l-10.1-5.8l6.2,10.8l-0.2,0.1l-7.7-13.3l0.3-0.1
		l11.4,6.6l-0.8-12.5l0.1-0.4L-188.3,199.2z"/>
	<path class="st1" d="M-179.2,194.2l-5.5,3.2l3.5,6l4.4-2.6l0.1,0.2l-4.4,2.6l3.9,6.7l5.5-3.2l0.1,0.2l-6.8,3.9l-7.7-13.3l6.8-3.9
		L-179.2,194.2z"/>
	<path class="st1" d="M-170.5,189.2l-5.5,3.2l3.5,6l4.4-2.6l0.1,0.2l-4.4,2.6l3.9,6.7l5.5-3.2l0.1,0.2l-6.8,3.9l-7.7-13.3l6.8-3.9
		L-170.5,189.2z"/>
</g>
<g>
	<path class="st1" d="M-156.8,210.2l0.5-0.6l0.2-0.1l12.5,10.5l-1.4,0.8l-2-1.6c-1.9-1.4-5.5-2.6-8.3-1l1.4,7.8l-0.2,0.1
		L-156.8,210.2z M-148.2,218.1l-8.2-6.9l1.2,6.6C-153.2,216.7-150.4,217-148.2,218.1z"/>
	<path class="st1" d="M-138.3,199.2l7.7,13.3l-1.3,0.8l-6.2-10.8l0.7,11.3l-0.3,0.2l-10.1-5.8l6.2,10.8l-0.2,0.1l-7.7-13.3l0.3-0.1
		l11.4,6.6l-0.8-12.5l0.1-0.4L-138.3,199.2z"/>
	<path class="st1" d="M-129.2,194.2l-5.5,3.2l3.5,6l4.4-2.6l0.1,0.2l-4.4,2.6l3.9,6.7l5.5-3.2l0.1,0.2l-6.8,3.9l-7.7-13.3l6.8-3.9
		L-129.2,194.2z"/>
	<path class="st1" d="M-120.5,189.2l-5.5,3.2l3.5,6l4.4-2.6l0.1,0.2l-4.4,2.6l3.9,6.7l5.5-3.2l0.1,0.2l-6.8,3.9l-7.7-13.3l6.8-3.9
		L-120.5,189.2z"/>
</g>
<g>
	<path class="st1" d="M-306.8,260.2l0.5-0.6l0.2-0.1l12.5,10.5l-1.4,0.8l-2-1.6c-1.9-1.4-5.5-2.6-8.3-1l1.4,7.8l-0.2,0.1
		L-306.8,260.2z M-298.2,268.1l-8.2-6.9l1.2,6.6C-303.2,266.7-300.4,267-298.2,268.1z"/>
	<path class="st1" d="M-288.3,249.2l7.7,13.3l-1.3,0.8l-6.2-10.8l0.7,11.3l-0.3,0.2l-10.1-5.8l6.2,10.8l-0.2,0.1l-7.7-13.3l0.3-0.1
		l11.4,6.6l-0.8-12.5l0.1-0.4L-288.3,249.2z"/>
	<path class="st1" d="M-279.2,244.2l-5.5,3.2l3.5,6l4.4-2.6l0.1,0.2l-4.4,2.6l3.9,6.7l5.5-3.2l0.1,0.2l-6.8,3.9l-7.7-13.3l6.8-3.9
		L-279.2,244.2z"/>
	<path class="st1" d="M-270.5,239.2l-5.5,3.2l3.5,6l4.4-2.6l0.1,0.2l-4.4,2.6l3.9,6.7l5.5-3.2l0.1,0.2l-6.8,3.9l-7.7-13.3l6.8-3.9
		L-270.5,239.2z"/>
</g>
<g>
	<path class="st1" d="M-256.8,260.2l0.5-0.6l0.2-0.1l12.5,10.5l-1.4,0.8l-2-1.6c-1.9-1.4-5.5-2.6-8.3-1l1.4,7.8l-0.2,0.1
		L-256.8,260.2z M-248.2,268.1l-8.2-6.9l1.2,6.6C-253.2,266.7-250.4,267-248.2,268.1z"/>
	<path class="st1" d="M-238.3,249.2l7.7,13.3l-1.3,0.8l-6.2-10.8l0.7,11.3l-0.3,0.2l-10.1-5.8l6.2,10.8l-0.2,0.1l-7.7-13.3l0.3-0.1
		l11.4,6.6l-0.8-12.5l0.1-0.4L-238.3,249.2z"/>
	<path class="st1" d="M-229.2,244.2l-5.5,3.2l3.5,6l4.4-2.6l0.1,0.2l-4.4,2.6l3.9,6.7l5.5-3.2l0.1,0.2l-6.8,3.9l-7.7-13.3l6.8-3.9
		L-229.2,244.2z"/>
	<path class="st1" d="M-220.5,239.2l-5.5,3.2l3.5,6l4.4-2.6l0.1,0.2l-4.4,2.6l3.9,6.7l5.5-3.2l0.1,0.2l-6.8,3.9l-7.7-13.3l6.8-3.9
		L-220.5,239.2z"/>
</g>
<g>
	<path class="st1" d="M-206.8,260.2l0.5-0.6l0.2-0.1l12.5,10.5l-1.4,0.8l-2-1.6c-1.9-1.4-5.5-2.6-8.3-1l1.4,7.8l-0.2,0.1
		L-206.8,260.2z M-198.2,268.1l-8.2-6.9l1.2,6.6C-203.2,266.7-200.4,267-198.2,268.1z"/>
	<path class="st1" d="M-188.3,249.2l7.7,13.3l-1.3,0.8l-6.2-10.8l0.7,11.3l-0.3,0.2l-10.1-5.8l6.2,10.8l-0.2,0.1l-7.7-13.3l0.3-0.1
		l11.4,6.6l-0.8-12.5l0.1-0.4L-188.3,249.2z"/>
	<path class="st1" d="M-179.2,244.2l-5.5,3.2l3.5,6l4.4-2.6l0.1,0.2l-4.4,2.6l3.9,6.7l5.5-3.2l0.1,0.2l-6.8,3.9l-7.7-13.3l6.8-3.9
		L-179.2,244.2z"/>
	<path class="st1" d="M-170.5,239.2l-5.5,3.2l3.5,6l4.4-2.6l0.1,0.2l-4.4,2.6l3.9,6.7l5.5-3.2l0.1,0.2l-6.8,3.9l-7.7-13.3l6.8-3.9
		L-170.5,239.2z"/>
</g>
<g>
	<path class="st1" d="M-156.8,260.2l0.5-0.6l0.2-0.1l12.5,10.5l-1.4,0.8l-2-1.6c-1.9-1.4-5.5-2.6-8.3-1l1.4,7.8l-0.2,0.1
		L-156.8,260.2z M-148.2,268.1l-8.2-6.9l1.2,6.6C-153.2,266.7-150.4,267-148.2,268.1z"/>
	<path class="st1" d="M-138.3,249.2l7.7,13.3l-1.3,0.8l-6.2-10.8l0.7,11.3l-0.3,0.2l-10.1-5.8l6.2,10.8l-0.2,0.1l-7.7-13.3l0.3-0.1
		l11.4,6.6l-0.8-12.5l0.1-0.4L-138.3,249.2z"/>
	<path class="st1" d="M-129.2,244.2l-5.5,3.2l3.5,6l4.4-2.6l0.1,0.2l-4.4,2.6l3.9,6.7l5.5-3.2l0.1,0.2l-6.8,3.9l-7.7-13.3l6.8-3.9
		L-129.2,244.2z"/>
	<path class="st1" d="M-120.5,239.2l-5.5,3.2l3.5,6l4.4-2.6l0.1,0.2l-4.4,2.6l3.9,6.7l5.5-3.2l0.1,0.2l-6.8,3.9l-7.7-13.3l6.8-3.9
		L-120.5,239.2z"/>
</g>
<rect class="st2" width="820.3" height="328.9"/>
</svg>
